<svg width="46" height="16" viewBox="0 0 46 16" fill="none" xmlns="http://www.w3.org/2000/svg">
<path d="M0.772949 14.16C0.772949 14.72 1.05295 15 1.59295 15H5.89295C8.53295 15 10.7929 13.72 10.7929 10.88C10.7929 9.44 10.0529 8 8.51295 7.54V7.5C9.59295 6.92 10.2329 5.78 10.2329 4.46C10.2329 2.12 8.39295 0.799999 5.83295 0.799999H1.59295C1.05295 0.799999 0.772949 1.1 0.772949 1.64V14.16ZM3.33295 6.6V3.02H5.79295C6.99295 3.02 7.59295 3.76 7.59295 4.78C7.59295 5.8 6.97295 6.6 5.85295 6.6H3.33295ZM3.33295 12.78V8.68H6.09295C7.39295 8.68 8.15295 9.54 8.15295 10.72C8.15295 11.92 7.41295 12.78 6.09295 12.78H3.33295Z" fill="#A3B5CA"/>
<path d="M11.9156 12.18C11.9156 14.04 13.4356 15.24 15.2956 15.24C17.5356 15.24 18.4956 13.32 18.4956 13.32H18.5356C18.5356 13.32 18.4956 13.48 18.4956 13.76V14.16C18.4956 14.72 18.7756 15 19.3156 15H19.9956C20.5556 15 20.8356 14.72 20.8356 14.16V8.62C20.8356 6.04 19.2556 4.56 16.6156 4.56C15.0956 4.56 13.9356 5.06 13.2756 5.4C12.7956 5.66 12.7156 6.06 12.9556 6.52L13.1556 6.9C13.3956 7.38 13.7756 7.46 14.2756 7.24C14.7556 6.98 15.5356 6.66 16.3956 6.66C17.4356 6.66 18.2956 7.12 18.2956 8.46V8.7H17.8756C15.5956 8.7 11.9156 9.2 11.9156 12.18ZM14.4356 11.96C14.4356 10.44 16.6156 10.24 17.8956 10.24H18.3156V10.62C18.3156 11.86 17.3956 13.3 15.9756 13.3C14.9556 13.3 14.4356 12.64 14.4356 11.96Z" fill="#A3B5CA"/>
<path d="M22.7857 14.2C23.4057 14.62 24.5457 15.24 26.1857 15.24C28.5457 15.24 30.0657 13.9 30.0657 12.1C30.0657 8.62 25.0057 9.28 25.0057 7.6C25.0057 6.96 25.5057 6.6 26.3857 6.6C27.2257 6.6 27.8857 6.9 28.3257 7.1C28.8257 7.32 29.2057 7.26 29.4457 6.78L29.6457 6.42C29.8657 5.96 29.8057 5.54 29.3457 5.3C28.8057 5 27.8657 4.56 26.5057 4.56C24.3657 4.56 22.6057 5.62 22.6057 7.62C22.6057 11.12 27.6657 10.5 27.6657 12.16C27.6657 12.8 27.1257 13.2 26.2457 13.2C25.2057 13.2 24.4457 12.76 23.9657 12.5C23.4657 12.24 23.1257 12.28 22.8257 12.7L22.5857 13.06C22.2857 13.5 22.3257 13.94 22.7857 14.2Z" fill="#A3B5CA"/>
<path d="M32.6132 3.06H33.4932C34.0332 3.06 34.3332 2.78 34.3332 2.24V1.64C34.3332 1.1 34.0332 0.799999 33.4932 0.799999H32.6132C32.0732 0.799999 31.7932 1.1 31.7932 1.64V2.24C31.7932 2.78 32.0732 3.06 32.6132 3.06ZM31.7932 14.16C31.7932 14.72 32.0732 15 32.6132 15H33.4932C34.0332 15 34.3132 14.72 34.3132 14.16V5.64C34.3132 5.1 34.0332 4.8 33.4932 4.8H32.6132C32.0732 4.8 31.7932 5.1 31.7932 5.64V14.16Z" fill="#A3B5CA"/>
<path d="M36.0145 9.9C36.0145 12.86 38.1745 15.24 41.5545 15.24C43.3145 15.24 44.5545 14.52 45.1745 14.06C45.5745 13.78 45.6345 13.38 45.3945 12.94L45.1945 12.56C44.9345 12.08 44.5545 12.02 44.0545 12.3C43.5745 12.64 42.7745 13.08 41.7745 13.08C39.8145 13.08 38.5945 11.6 38.5945 9.88C38.5945 8.14 39.8145 6.72 41.6945 6.72C42.5745 6.72 43.2545 7.06 43.6745 7.34C44.1545 7.58 44.4945 7.58 44.7945 7.12L45.0545 6.72C45.3345 6.28 45.3145 5.86 44.8945 5.58C44.2945 5.16 43.1945 4.56 41.5545 4.56C38.1745 4.56 36.0145 7 36.0145 9.9Z" fill="#A3B5CA"/>
</svg>
