<svg width="110" height="30" viewBox="0 0 110 30" fill="none" xmlns="http://www.w3.org/2000/svg">
<path d="M20.3183 11.4995C19.7538 9.73578 20.9531 7.54907 20.9531 7.54907C20.9531 7.54907 20.3886 7.54907 18.9775 8.81872C18.136 9.55098 17.628 10.5937 17.57 11.7077C15.9478 7.89796 12.6314 5.42902 11.3617 3.73564C10.1588 2.18672 11.0054 0 11.0054 0C8.5365 1.05854 7.26684 3.73935 6.84312 6.91349C6.74266 8.65823 5.86164 10.2649 4.44455 11.2877C4.09195 8.32464 0.776314 7.54832 0.776314 7.54832C1.48152 7.76018 2.6808 11.2166 1.41114 13.6862C0.54351 15.2941 0.0604808 17.0811 0 18.9071C0 24.8332 3.73935 29.6303 10.7232 29.6303C13.5999 29.7189 16.3862 28.62 18.428 26.5916C20.4698 24.5633 21.5871 21.7843 21.5175 18.9071C21.6583 16.7908 20.8827 13.3336 20.3183 11.4995Z" fill="url(#paint0_radial)"/>
<path fill-rule="evenodd" clip-rule="evenodd" d="M16.0854 17.496C16.0854 18.6648 15.4221 19.6123 14.6038 19.6123C13.7856 19.6123 13.1223 18.6648 13.1223 17.496C13.1223 16.3271 13.7856 15.3796 14.6038 15.3796C15.4221 15.3796 16.0854 16.3271 16.0854 17.496ZM17.7069 19.6123C17.6676 23.4028 14.5837 26.455 10.793 26.455C7.00231 26.455 3.91839 23.4028 3.87915 19.6123H2.75098C2.81069 24.0114 6.39385 27.5463 10.7934 27.5463C15.1929 27.5463 18.7761 24.0114 18.8358 19.6123H17.7069ZM6.98441 19.6123C7.80263 19.6123 8.46592 18.6648 8.46592 17.496C8.46592 16.3271 7.80263 15.3796 6.98441 15.3796C6.16619 15.3796 5.50289 16.3271 5.50289 17.496C5.50289 18.6648 6.16619 19.6123 6.98441 19.6123Z" fill="#231F20"/>
<path fill-rule="evenodd" clip-rule="evenodd" d="M68.6649 24.8123C68.5718 24.3843 68.6079 23.9236 68.8102 23.4833C69.0048 23.0597 69.3181 22.6894 69.7082 22.4383C70.6817 21.8915 71.9072 22.147 72.5925 23.0218C73.0728 23.6353 73.2455 24.4274 72.9664 25.1731C72.6827 25.932 71.9342 26.3826 71.1652 26.5094C70.619 26.5994 70.045 26.5233 69.5853 26.1963C69.1245 25.8682 68.7853 25.37 68.6649 24.8123ZM69.9755 18.1187L69.9755 18.1186C69.9805 18.0566 69.9854 17.9963 69.9898 17.9381C70.0358 17.3276 70.0766 16.7168 70.1173 16.106L70.1174 16.1054L70.1174 16.1046L70.1175 16.1038L70.1175 16.1029C70.1482 15.6426 70.179 15.1823 70.2119 14.7221L70.2162 14.6622L70.2162 14.6617L70.2163 14.6616L70.2163 14.6615C70.3057 13.4146 70.3952 12.1654 70.5389 10.9236C70.5468 10.8567 70.5575 10.789 70.5682 10.721L70.5682 10.7209C70.5866 10.6048 70.605 10.488 70.6096 10.3736C70.6453 9.42585 71.2225 8.58712 72.0517 8.18653C72.8806 7.82203 73.8184 8.00428 74.4673 8.62357C74.8279 8.98808 75.0081 9.49838 74.9717 10.0091C75.0438 10.6283 74.9717 11.2484 74.8279 11.8316C74.6112 13.1434 73.4578 18.2104 73.0973 19.4493C72.9888 19.9961 72.7003 20.4703 72.3041 20.8348C71.9072 21.1625 71.3307 21.2354 70.862 20.9802C69.8312 20.5636 69.8853 19.266 69.9624 18.2833C69.9667 18.2277 69.9711 18.1732 69.9754 18.1199L69.9755 18.119L69.9755 18.1187ZM59.5409 22.1468C59.5071 22.5248 59.6996 22.9094 59.992 23.1372C60.7127 23.6982 62.1235 23.509 62.7497 22.8758C63.2545 22.3655 63.5789 21.7094 63.615 20.9804C63.0897 21.0249 62.5611 21.0366 62.034 21.0457C61.9551 21.047 61.8699 21.0471 61.7802 21.0471H61.78C60.9171 21.0479 59.6399 21.049 59.5409 22.1468ZM57.2339 24.8442C56.4043 24.1881 55.9356 23.131 56.0077 22.0739C56.0438 21.0533 56.5124 20.0692 57.3056 19.4495C57.8219 19.046 58.5282 18.8189 59.1656 18.7267C59.6464 18.6572 60.1358 18.678 60.6236 18.6987C60.8776 18.7095 61.1312 18.7203 61.3829 18.7183C61.9958 18.7129 62.6069 18.6862 63.2184 18.6476L64.084 18.5747V18.5018C64.084 18.2831 64.084 18.0644 64.0116 17.8457C63.6983 16.8951 62.2554 16.5328 61.3988 16.7872C61.053 16.8896 60.7473 17.0611 60.4386 17.2341L60.4385 17.2342C60.3561 17.2804 60.2735 17.3267 60.1899 17.3718C59.688 17.6434 59.0528 17.8238 58.5199 17.5311C58.1291 17.3164 57.8919 16.8947 57.8201 16.4602C57.5973 15.1167 59.1919 14.2688 60.2912 14.0611C61.6191 13.8103 62.939 14.0683 64.2279 14.3829C65.2735 14.6381 66.2108 15.1848 66.8959 15.9867C67.5091 16.9344 67.7251 18.1009 67.5448 19.1944C67.4583 19.9379 67.2939 20.6815 67.1295 21.4251C67.0199 21.9208 66.9103 22.4166 66.8238 22.9123C66.7538 23.5152 66.7087 24.1254 66.7592 24.7319C66.8072 25.3085 66.8367 25.8385 66.5714 26.3751C66.0306 27.0676 65.0211 27.2134 64.3 26.6667C64.1998 26.616 64.1345 26.5301 64.0797 26.458L64.0797 26.4579L64.0796 26.4578L64.0796 26.4577C64.0556 26.4262 64.0336 26.3973 64.0116 26.3751C63.7953 26.0106 63.5789 25.6461 63.363 25.2451C62.245 25.8283 60.9831 26.0835 59.7576 25.9741C58.8199 25.8283 57.9549 25.4274 57.2339 24.8442ZM50.5637 11.6491C50.5637 12.2323 50.5637 12.8155 50.6358 13.3988L51.429 24.3703C51.5732 25.1358 51.8616 26.3386 53.448 26.2657C54.4575 26.0835 55.1425 25.1358 55.0343 24.0787C55.0343 23.6413 54.169 13.1072 54.169 13.1072C54.1353 12.8176 54.1174 12.5122 54.1005 12.2243C54.0812 11.896 54.0632 11.5906 54.0248 11.3575C53.8085 10.4827 53.0153 9.89952 52.15 9.89952C51.2487 10.0089 50.5997 10.7379 50.5637 11.6491ZM45.6365 17.9333C45.0921 17.1854 44.1353 16.8168 43.2087 17.1168C42.6939 17.2834 42.2136 17.8218 41.9461 18.2745C41.587 18.881 41.4309 19.6541 41.4064 20.3551C41.3927 20.7349 41.4284 21.1151 41.5138 21.4858C41.6833 22.2199 42.0042 22.8527 42.7112 23.1774C43.4391 23.5121 44.3069 23.4045 44.9393 22.9121C44.9753 22.9121 45.0114 22.876 45.0114 22.8395C45.3247 22.506 45.5789 22.1175 45.7656 21.6986C46.0454 21.0699 46.1719 20.4258 46.1532 19.7343C46.1417 19.3101 46.0825 18.8832 45.9336 18.4866C45.8583 18.2854 45.7577 18.0999 45.6365 17.9333ZM49.389 20.9784C49.3255 21.5867 49.1903 22.171 48.9419 22.7499C48.6964 23.3214 48.3644 23.8547 47.9591 24.3245C47.565 24.7813 47.0671 25.2628 46.5256 25.5365C44.7229 26.4478 42.5958 26.4117 40.7931 25.4636C39.8918 24.9897 39.1707 24.2976 38.6299 23.4227C38.017 22.4382 37.7646 21.2718 37.9088 20.1422C37.9088 18.1735 38.8462 16.351 40.3605 15.185C42.055 14.1279 44.1461 13.9457 46.0209 14.6747C47.3711 15.1995 48.4707 16.281 49.0176 17.6359C49.3602 18.4841 49.4571 19.4139 49.4312 20.3245C49.4247 20.5457 49.4113 20.7637 49.389 20.9784ZM36.2865 17.4811C36.1422 16.4609 35.6375 15.5128 34.9164 14.7838C33.3661 13.6174 31.275 13.5809 29.6887 14.6744C29.4002 14.8931 29.1118 15.1118 28.8955 15.4035C28.7873 14.1277 28.6431 12.8155 28.3907 11.5397C28.2465 11.0294 27.886 10.592 27.3812 10.4098C26.9486 10.2639 26.4438 10.2639 26.0112 10.4827C25.6146 10.6649 25.3262 10.9565 25.1459 11.3575C24.9657 11.9407 24.9657 12.5239 25.0738 13.1071C25.182 13.7267 25.4344 16.3238 25.6867 18.9209C25.9391 21.518 26.1915 24.1151 26.2996 24.7347C26.3717 25.245 26.5881 25.7557 26.9486 26.1202C27.237 26.4115 27.6336 26.5573 28.0663 26.5573C28.9315 26.4847 29.6526 25.8283 29.7968 24.9534C29.8329 24.48 29.7968 24.0422 29.7247 23.5687C29.683 23.2313 29.5932 22.3095 29.5108 21.4648C29.4507 20.8484 29.3946 20.2732 29.3642 19.9962C29.3281 19.4494 29.3281 18.9391 29.4363 18.3924C29.7608 17.5905 30.5179 17.0437 31.3832 16.9708C32.609 16.9344 32.8253 18.2466 32.9695 19.2672C33.0449 19.9148 33.1006 20.5626 33.1571 21.2207C33.2088 21.8219 33.2612 22.4317 33.3301 23.058C33.3301 23.9332 33.4382 25.245 34.4477 25.6825C35.313 26.0105 36.2865 25.6825 36.7191 24.8805C36.9715 24.3702 37.0436 23.787 36.9354 23.2042C36.9178 23.0528 36.883 22.708 36.8373 22.2552C36.6958 20.8537 36.45 18.4178 36.2865 17.4811Z" fill="#40474F"/>
<path d="M81 25.16C81 25.72 81.28 26 81.82 26H82.74C83.28 26 83.56 25.72 83.56 25.16V21.1H86.46C89.12 21.1 90.98 19.18 90.98 16.42C90.98 13.66 89.12 11.8 86.46 11.8H81.82C81.28 11.8 81 12.1 81 12.64V25.16ZM83.56 18.86V14.02H86.02C87.5 14.02 88.36 14.96 88.36 16.42C88.36 17.9 87.5 18.86 85.98 18.86H83.56Z" fill="#FF6400"/>
<path d="M92.4149 25.16C92.4149 25.72 92.6949 26 93.2349 26H94.1149C94.6549 26 94.9349 25.72 94.9349 25.16V21.88C94.9349 20.02 95.8349 18.18 97.6949 18.18C98.2349 18.18 98.5549 17.88 98.5549 17.34V16.56C98.5549 16 98.3549 15.72 97.7949 15.72C96.3549 15.72 95.2349 17.08 94.8349 18.3H94.7949C94.7949 18.3 94.8549 17.98 94.8549 17.6V16.64C94.8549 16.1 94.5549 15.8 94.0149 15.8H93.2349C92.6949 15.8 92.4149 16.1 92.4149 16.64V25.16Z" fill="#FF6400"/>
<path d="M98.726 20.9C98.726 24.04 101.226 26.24 104.326 26.24C107.426 26.24 109.946 24.04 109.946 20.9C109.946 17.78 107.426 15.56 104.326 15.56C101.226 15.56 98.726 17.78 98.726 20.9ZM101.306 20.9C101.306 19.02 102.666 17.72 104.326 17.72C105.986 17.72 107.366 19.02 107.366 20.9C107.366 22.8 105.986 24.08 104.326 24.08C102.666 24.08 101.306 22.8 101.306 20.9Z" fill="#FF6400"/>
<defs>
<radialGradient id="paint0_radial" cx="0" cy="0" r="1" gradientUnits="userSpaceOnUse" gradientTransform="translate(12.6331 22.3005) scale(22.5843 31.0802)">
<stop offset="0.05" stop-color="#FBAE17"/>
<stop offset="0.174" stop-color="#F6921E"/>
<stop offset="0.4" stop-color="#F16522"/>
<stop offset="0.63" stop-color="#D71921"/>
<stop offset="0.797" stop-color="#C3161C"/>
<stop offset="0.956" stop-color="#B01117"/>
</radialGradient>
</defs>
</svg>
