<svg width="26" height="36" viewBox="0 0 26 36" fill="none" xmlns="http://www.w3.org/2000/svg">
<path d="M24.0125 13.7994C23.3454 11.6829 24.7627 9.05888 24.7627 9.05888C24.7627 9.05888 24.0956 9.05888 22.4279 10.5825C21.4334 11.4612 20.8331 12.7124 20.7646 14.0492C18.8474 9.47755 14.928 6.51482 13.4275 4.48277C12.0058 2.62406 13.0064 0 13.0064 0C10.0886 1.27025 8.58808 4.48722 8.08733 8.29619C7.9686 10.3899 6.92739 12.3179 5.25265 13.5452C4.83594 9.98957 0.917463 9.05799 0.917463 9.05799C1.75088 9.31222 3.16822 13.4599 1.66772 16.4235C0.64233 18.3529 0.0714773 20.4974 0 22.6885C0 29.7998 4.41923 35.5564 12.6729 35.5564C16.0726 35.6627 19.3655 34.344 21.7786 31.91C24.1916 29.476 25.512 26.1411 25.4298 22.6885C25.5962 20.1489 24.6796 16.0004 24.0125 13.7994Z" fill="url(#paint0_radial)"/>
<path fill-rule="evenodd" clip-rule="evenodd" d="M19.0103 20.9952C19.0103 22.3978 18.2264 23.5348 17.2594 23.5348C16.2925 23.5348 15.5086 22.3978 15.5086 20.9952C15.5086 19.5926 16.2925 18.4556 17.2594 18.4556C18.2264 18.4556 19.0103 19.5926 19.0103 20.9952ZM20.9266 23.5348C20.8803 28.0834 17.2356 31.746 12.7557 31.746C8.27577 31.746 4.63113 28.0834 4.58476 23.5348H3.25146C3.32203 28.8138 7.55668 33.0556 12.7561 33.0556C17.9556 33.0556 22.1902 28.8138 22.2608 23.5348H20.9266ZM8.25462 23.5348C9.2216 23.5348 10.0055 22.3978 10.0055 20.9952C10.0055 19.5926 9.2216 18.4556 8.25462 18.4556C7.28763 18.4556 6.50374 19.5926 6.50374 20.9952C6.50374 22.3978 7.28763 23.5348 8.25462 23.5348Z" fill="#231F20"/>
<defs>
<radialGradient id="paint0_radial" cx="0" cy="0" r="1" gradientUnits="userSpaceOnUse" gradientTransform="translate(14.93 26.7606) scale(26.6905 37.2963)">
<stop offset="0.05" stop-color="#FBAE17"/>
<stop offset="0.174" stop-color="#F6921E"/>
<stop offset="0.4" stop-color="#F16522"/>
<stop offset="0.63" stop-color="#D71921"/>
<stop offset="0.797" stop-color="#C3161C"/>
<stop offset="0.956" stop-color="#B01117"/>
</radialGradient>
</defs>
</svg>
