<svg width="29" height="16" viewBox="0 0 29 16" fill="none" xmlns="http://www.w3.org/2000/svg">
<path d="M0 14.16C0 14.72 0.28 15 0.82 15H1.74C2.28 15 2.56 14.72 2.56 14.16V10.1H5.46C8.12 10.1 9.98 8.18 9.98 5.42C9.98 2.66 8.12 0.800003 5.46 0.800003H0.82C0.28 0.800003 0 1.1 0 1.64V14.16ZM2.56 7.86V3.02H5.02C6.5 3.02 7.36 3.96 7.36 5.42C7.36 6.9 6.5 7.86 4.98 7.86H2.56Z" fill="#A3B5CA"/>
<path d="M11.4149 14.16C11.4149 14.72 11.6949 15 12.2349 15H13.1149C13.6549 15 13.9349 14.72 13.9349 14.16V10.88C13.9349 9.02 14.8349 7.18 16.6949 7.18C17.2349 7.18 17.5549 6.88 17.5549 6.34V5.56C17.5549 5 17.3549 4.72 16.7949 4.72C15.3549 4.72 14.2349 6.08 13.8349 7.3H13.7949C13.7949 7.3 13.8549 6.98 13.8549 6.6V5.64C13.8549 5.1 13.5549 4.8 13.0149 4.8H12.2349C11.6949 4.8 11.4149 5.1 11.4149 5.64V14.16Z" fill="#A3B5CA"/>
<path d="M17.726 9.9C17.726 13.04 20.226 15.24 23.326 15.24C26.426 15.24 28.946 13.04 28.946 9.9C28.946 6.78 26.426 4.56 23.326 4.56C20.226 4.56 17.726 6.78 17.726 9.9ZM20.306 9.9C20.306 8.02 21.666 6.72 23.326 6.72C24.986 6.72 26.366 8.02 26.366 9.9C26.366 11.8 24.986 13.08 23.326 13.08C21.666 13.08 20.306 11.8 20.306 9.9Z" fill="#A3B5CA"/>
</svg>
